<mxfile host="app.diagrams.net" agent="Mozilla/5.0 (Windows NT 10.0; Win64; x64; rv:130.0) Gecko/20100101 Firefox/130.0" version="24.7.16">
  <diagram name="Page-1" id="ZpYNvY8d8dBsB5j52Xvp">
    <mxGraphModel dx="1434" dy="746" grid="1" gridSize="10" guides="1" tooltips="1" connect="1" arrows="1" fold="1" page="1" pageScale="1" pageWidth="850" pageHeight="1100" math="0" shadow="0">
      <root>
        <mxCell id="0" />
        <mxCell id="1" parent="0" />
        <mxCell id="5E9RYm8k1yz9LcODwsZq-1" value="" style="image;points=[];aspect=fixed;html=1;align=center;shadow=0;dashed=0;image=img/lib/allied_telesis/computer_and_terminals/Server_Desktop.svg;" vertex="1" parent="1">
          <mxGeometry x="106.3" y="310" width="62.6" height="79.35" as="geometry" />
        </mxCell>
        <mxCell id="5E9RYm8k1yz9LcODwsZq-2" value="&lt;div&gt;IBM QRadar CE 7.3&lt;/div&gt;" style="text;html=1;align=center;verticalAlign=middle;resizable=0;points=[];autosize=1;strokeColor=none;fillColor=none;" vertex="1" parent="1">
          <mxGeometry x="72.6" y="418" width="130" height="30" as="geometry" />
        </mxCell>
        <mxCell id="5E9RYm8k1yz9LcODwsZq-3" value="" style="image;html=1;image=img/lib/clip_art/networking/Cloud_Server_128x128.png" vertex="1" parent="1">
          <mxGeometry x="690" y="40" width="80" height="80" as="geometry" />
        </mxCell>
        <mxCell id="5E9RYm8k1yz9LcODwsZq-4" value="&lt;div&gt;Microsoft 365 Defender&lt;/div&gt;" style="text;html=1;align=center;verticalAlign=middle;resizable=0;points=[];autosize=1;strokeColor=none;fillColor=none;" vertex="1" parent="1">
          <mxGeometry x="650" y="130" width="150" height="30" as="geometry" />
        </mxCell>
        <mxCell id="5E9RYm8k1yz9LcODwsZq-7" value="" style="image;aspect=fixed;perimeter=ellipsePerimeter;html=1;align=center;shadow=0;dashed=0;spacingTop=3;image=img/lib/active_directory/web_server.svg;" vertex="1" parent="1">
          <mxGeometry x="112.60000000000001" y="468" width="50" height="62.5" as="geometry" />
        </mxCell>
        <mxCell id="5E9RYm8k1yz9LcODwsZq-8" value="Web Server" style="text;html=1;align=center;verticalAlign=middle;resizable=0;points=[];autosize=1;strokeColor=none;fillColor=none;" vertex="1" parent="1">
          <mxGeometry x="92.6" y="550" width="90" height="30" as="geometry" />
        </mxCell>
        <mxCell id="5E9RYm8k1yz9LcODwsZq-11" value="" style="endArrow=classic;html=1;rounded=0;" edge="1" parent="1">
          <mxGeometry width="50" height="50" relative="1" as="geometry">
            <mxPoint x="196.3" y="510" as="sourcePoint" />
            <mxPoint x="190" y="350" as="targetPoint" />
            <Array as="points">
              <mxPoint x="246.3" y="510" />
              <mxPoint x="246" y="350" />
            </Array>
          </mxGeometry>
        </mxCell>
        <mxCell id="5E9RYm8k1yz9LcODwsZq-13" value="Sends logs to" style="edgeLabel;html=1;align=center;verticalAlign=middle;resizable=0;points=[];" vertex="1" connectable="0" parent="5E9RYm8k1yz9LcODwsZq-11">
          <mxGeometry x="-0.0075" y="-2" relative="1" as="geometry">
            <mxPoint as="offset" />
          </mxGeometry>
        </mxCell>
        <mxCell id="5E9RYm8k1yz9LcODwsZq-14" value="" style="image;html=1;image=img/lib/clip_art/networking/Firewall_128x128.png" vertex="1" parent="1">
          <mxGeometry x="320" y="190" width="80" height="80" as="geometry" />
        </mxCell>
        <mxCell id="5E9RYm8k1yz9LcODwsZq-15" value="PFsense firewall" style="text;html=1;align=center;verticalAlign=middle;resizable=0;points=[];autosize=1;strokeColor=none;fillColor=none;" vertex="1" parent="1">
          <mxGeometry x="300" y="290" width="120" height="30" as="geometry" />
        </mxCell>
        <mxCell id="5E9RYm8k1yz9LcODwsZq-16" value="" style="image;html=1;image=img/lib/clip_art/computers/Server_128x128.png" vertex="1" parent="1">
          <mxGeometry x="220" y="20" width="80" height="80" as="geometry" />
        </mxCell>
        <mxCell id="5E9RYm8k1yz9LcODwsZq-17" value="Proxmox 192.168.1.10" style="text;html=1;align=center;verticalAlign=middle;resizable=0;points=[];autosize=1;strokeColor=none;fillColor=none;" vertex="1" parent="1">
          <mxGeometry x="185" y="120" width="150" height="30" as="geometry" />
        </mxCell>
        <mxCell id="5E9RYm8k1yz9LcODwsZq-18" value="" style="rounded=1;whiteSpace=wrap;html=1;fillColor=none;" vertex="1" parent="1">
          <mxGeometry x="50" y="20" width="490" height="620" as="geometry" />
        </mxCell>
        <mxCell id="5E9RYm8k1yz9LcODwsZq-19" value="" style="rounded=1;whiteSpace=wrap;html=1;fillColor=none;" vertex="1" parent="1">
          <mxGeometry x="310" y="329.35" width="210" height="250.65" as="geometry" />
        </mxCell>
        <mxCell id="5E9RYm8k1yz9LcODwsZq-20" value="&lt;div&gt;10.10.10.10/24&lt;/div&gt;" style="text;html=1;align=center;verticalAlign=middle;resizable=0;points=[];autosize=1;strokeColor=none;fillColor=none;" vertex="1" parent="1">
          <mxGeometry x="360" y="340" width="110" height="30" as="geometry" />
        </mxCell>
        <mxCell id="5E9RYm8k1yz9LcODwsZq-21" value="" style="verticalLabelPosition=bottom;html=1;verticalAlign=top;align=center;strokeColor=none;fillColor=#00BEF2;shape=mxgraph.azure.computer;pointerEvents=1;" vertex="1" parent="1">
          <mxGeometry x="340" y="389.35" width="50" height="45" as="geometry" />
        </mxCell>
        <mxCell id="5E9RYm8k1yz9LcODwsZq-22" value="flarevm" style="text;html=1;align=center;verticalAlign=middle;resizable=0;points=[];autosize=1;strokeColor=none;fillColor=none;" vertex="1" parent="1">
          <mxGeometry x="330" y="448" width="60" height="30" as="geometry" />
        </mxCell>
      </root>
    </mxGraphModel>
  </diagram>
</mxfile>
